<svg width="46" height="46" viewBox="0 0 46 46" fill="none" xmlns="http://www.w3.org/2000/svg">
<path d="M23.0049 45.6027C16.8549 45.6027 16.1299 45.5702 13.7299 45.4652C11.8583 45.4037 10.011 45.0232 8.26738 44.3402C6.77533 43.7595 5.42033 42.875 4.28843 41.7426C3.15653 40.6103 2.27247 39.255 1.69238 37.7627C1.03565 36.0128 0.681427 34.1639 0.644883 32.2952C0.504883 29.9002 0.504883 29.1152 0.504883 23.0127C0.504883 16.8452 0.537383 16.1252 0.644883 13.7377C0.682227 11.8715 1.03644 10.0252 1.69238 8.2777C2.2718 6.78354 3.15646 5.42664 4.28987 4.29367C5.42327 3.16069 6.7805 2.27655 8.27488 1.6977C10.0215 1.0382 11.8682 0.683056 13.7349 0.647695C16.1224 0.512695 16.9074 0.512695 23.0049 0.512695C29.2049 0.512695 29.9174 0.545195 32.2799 0.647695C34.1499 0.682695 36.0049 1.0377 37.7549 1.6977C39.2489 2.27722 40.6058 3.1616 41.7391 4.29449C42.8724 5.42738 43.7573 6.78393 44.3374 8.2777C45.0049 10.0527 45.3624 11.9277 45.3899 13.8202C45.5299 16.2152 45.5299 16.9977 45.5299 23.0977C45.5299 29.1977 45.4949 29.9977 45.3899 32.3652C45.3525 34.2357 44.9975 36.0862 44.3399 37.8377C43.7583 39.331 42.8726 40.6871 41.739 41.8198C40.6054 42.9526 39.2486 43.8373 37.7549 44.4177C36.0049 45.0727 34.1574 45.4277 32.2899 45.4652C29.9024 45.6027 29.1199 45.6027 23.0049 45.6027V45.6027ZM22.9199 4.47019C16.8049 4.47019 16.1699 4.5002 13.7824 4.6077C12.3565 4.62634 10.9444 4.88931 9.60738 5.38519C8.63221 5.75898 7.74619 6.33297 7.00642 7.07015C6.26666 7.80733 5.68958 8.69134 5.31238 9.66519C4.81238 11.0152 4.54988 12.4427 4.53488 13.8827C4.40238 16.3052 4.40238 16.9402 4.40238 23.0127C4.40238 29.0127 4.42488 29.7402 4.53488 32.1477C4.55738 33.5727 4.81988 34.9852 5.31238 36.3227C6.07738 38.2902 7.63738 39.8452 9.60988 40.6002C10.9452 41.0992 12.357 41.3623 13.7824 41.3777C16.2024 41.5177 16.8399 41.5177 22.9199 41.5177C29.0524 41.5177 29.6874 41.4877 32.0549 41.3777C33.4809 41.3604 34.8933 41.0974 36.2299 40.6002C37.1998 40.2236 38.0808 39.6492 38.8168 38.9136C39.5528 38.1781 40.1277 37.2974 40.5049 36.3277C41.0049 34.9777 41.2674 33.5477 41.2824 32.1077H41.3099C41.4174 29.7177 41.4174 29.0802 41.4174 22.9727C41.4174 16.8652 41.3899 16.2227 41.2824 13.8352C41.2598 12.4113 40.9969 11.0015 40.5049 9.66519C40.1285 8.69406 39.5541 7.81195 38.818 7.07507C38.082 6.33818 37.2006 5.76267 36.2299 5.38519C34.8935 4.8869 33.481 4.62385 32.0549 4.6077C29.6374 4.4702 29.0049 4.47019 22.9199 4.47019V4.47019ZM23.0049 34.5602C20.7188 34.5617 18.4837 33.8852 16.5821 32.6162C14.6805 31.3473 13.198 29.5429 12.322 27.4313C11.4461 25.3198 11.216 22.9958 11.6609 20.7535C12.1058 18.5111 13.2057 16.451 14.8215 14.8338C16.4373 13.2167 18.4964 12.115 20.7383 11.6681C22.9803 11.2213 25.3044 11.4494 27.4168 12.3235C29.5291 13.1977 31.3348 14.6786 32.6054 16.5791C33.8759 18.4795 34.5544 20.7141 34.5549 23.0002C34.5509 26.0631 33.3331 28.9997 31.1682 31.1664C29.0033 33.3332 26.0678 34.5536 23.0049 34.5602V34.5602ZM23.0049 15.4952C21.5215 15.4952 20.0715 15.9351 18.8381 16.7592C17.6047 17.5833 16.6434 18.7546 16.0758 20.1251C15.5081 21.4955 15.3596 23.0035 15.649 24.4584C15.9384 25.9132 16.6527 27.2496 17.7016 28.2985C18.7505 29.3474 20.0868 30.0617 21.5417 30.3511C22.9966 30.6405 24.5046 30.492 25.875 29.9243C27.2455 29.3566 28.4168 28.3953 29.2409 27.162C30.065 25.9286 30.5049 24.4786 30.5049 22.9952C30.5003 21.0075 29.7086 19.1025 28.3031 17.697C26.8976 16.2915 24.9926 15.4998 23.0049 15.4952ZM35.0049 13.7127C34.651 13.7114 34.3008 13.6404 33.9743 13.5037C33.6478 13.3671 33.3515 13.1675 33.1022 12.9163C32.5986 12.409 32.3172 11.7225 32.3199 11.0077C32.3225 10.2929 32.609 9.60851 33.1163 9.10497C33.6236 8.60144 34.3101 8.32004 35.0249 8.3227C35.7396 8.32535 36.4241 8.61183 36.9276 9.11911C37.4311 9.6264 37.7125 10.3129 37.7099 11.0277C37.7072 11.7425 37.4208 12.4269 36.9135 12.9304C36.4062 13.434 35.7196 13.7153 35.0049 13.7127Z" fill="#B2F7EF"/>
</svg>
