<svg width="60" height="60" viewBox="0 0 60 60" fill="none" xmlns="http://www.w3.org/2000/svg">
<path d="M59.1073 12.3429C57.0198 13.2679 54.7773 13.8929 52.4198 14.1754C54.8523 12.7199 56.6721 10.4291 57.5398 7.73044C55.2544 9.08791 52.7532 10.0434 50.1448 10.5554C48.3907 8.6826 46.0674 7.44125 43.5356 7.02412C41.0038 6.60699 38.405 7.03742 36.1429 8.24857C33.8807 9.45972 32.0817 11.3838 31.0252 13.7222C29.9686 16.0606 29.7136 18.6823 30.2998 21.1804C25.669 20.9479 21.1389 19.7443 17.0033 17.6477C12.8678 15.5511 9.21939 12.6083 6.29478 9.01044C5.29478 10.7354 4.71979 12.7354 4.71979 14.8654C4.71867 16.7829 5.19087 18.671 6.09448 20.3623C6.9981 22.0535 8.30519 23.4955 9.89979 24.5604C8.05048 24.5016 6.24197 24.0019 4.62479 23.1029V23.2529C4.6246 25.9423 5.55487 28.5489 7.25774 30.6304C8.96062 32.712 11.3312 34.1403 13.9673 34.6729C12.2517 35.1372 10.4531 35.2056 8.70728 34.8729C9.45103 37.187 10.8998 39.2105 12.8507 40.6603C14.8016 42.11 17.1571 42.9134 19.5873 42.9579C15.4619 46.1965 10.367 47.9532 5.12229 47.9454C4.19324 47.9457 3.26498 47.8914 2.34229 47.7829C7.66598 51.2059 13.8631 53.0225 20.1923 53.0154C41.6173 53.0154 53.3298 35.2704 53.3298 19.8804C53.3298 19.3804 53.3173 18.8754 53.2948 18.3754C55.573 16.7279 57.5396 14.6877 59.1023 12.3504L59.1073 12.3429Z" fill="#B2F7EF"/>
</svg>
